<svg width="75" height="74" viewBox="0 0 75 74" fill="none" xmlns="http://www.w3.org/2000/svg">
<g clip-path="url(#clip0_889_869)">
<path d="M44.7184 46.3571L39.4838 52.5577C37.6735 54.702 35.2607 55.7953 32.2455 55.8375C29.2303 55.8797 26.4891 54.8602 24.0219 52.7792C21.5547 50.6981 20.0899 48.1668 19.6274 45.1852C19.1649 42.2035 19.8379 39.6416 21.6465 37.4993L26.8811 31.2987L30.4485 34.3104L25.214 40.5109C24.1234 41.8027 23.7167 43.34 23.9938 45.1226C24.271 46.9053 25.1528 48.424 26.6392 49.6789C28.1256 50.9338 29.7708 51.5483 31.5747 51.5224C33.3786 51.4966 34.8258 50.8378 35.9163 49.546L41.1509 43.3454L44.7184 46.3571ZM33.6575 44.9842L30.0901 41.9725L40.5592 29.5713L44.1267 32.583L33.6575 44.9842ZM47.3357 43.2568L43.7682 40.2451L49.0028 34.0445C50.0933 32.7527 50.5 31.2155 50.2229 29.4329C49.9457 27.6502 49.064 26.1314 47.5775 24.8766C46.0911 23.6217 44.4459 23.0072 42.642 23.033C40.8381 23.0589 39.3909 23.7177 38.3004 25.0095L33.0658 31.2101L29.4984 28.1984L34.7329 21.9978C36.5432 19.8535 38.9564 18.7597 41.9725 18.7165C44.9886 18.6732 47.7294 19.6932 50.1948 21.7763C52.6602 23.8594 54.1257 26.3912 54.5911 29.3718C55.0565 32.3524 54.3829 34.9138 52.5702 37.0562L47.3357 43.2568Z" fill="#FCFCFC"/>
</g>
<defs>
<clipPath id="clip0_889_869">
<rect width="48.6881" height="56.0246" fill="white" transform="translate(0 37.8094) rotate(-49.8287)"/>
</clipPath>
</defs>
</svg>
